<?xml version="1.0" standalone="no"?>
<!DOCTYPE svg PUBLIC "-//W3C//DTD SVG 20010904//EN"
 "http://www.w3.org/TR/2001/REC-SVG-20010904/DTD/svg10.dtd">
<svg version="1.0" xmlns="http://www.w3.org/2000/svg"
 width="617.000000pt" height="617.000000pt" viewBox="0 0 617.000000 617.000000"
 preserveAspectRatio="xMidYMid meet">
<metadata>
Created by potrace 1.14, written by Peter Selinger 2001-2017
</metadata>
<g transform="translate(0.000000,617.000000) scale(0.100000,-0.100000)"
fill="#000000" stroke="none">
<path d="M3078 5963 c6 -2 18 -2 25 0 6 3 1 5 -13 5 -14 0 -19 -2 -12 -5z"/>
<path d="M2853 5953 c9 -2 25 -2 35 0 9 3 1 5 -18 5 -19 0 -27 -2 -17 -5z"/>
<path d="M3298 5953 c6 -2 18 -2 25 0 6 3 1 5 -13 5 -14 0 -19 -2 -12 -5z"/>
<path d="M2748 5943 c7 -3 16 -2 19 1 4 3 -2 6 -13 5 -11 0 -14 -3 -6 -6z"/>
<path d="M3408 5943 c6 -2 18 -2 25 0 6 3 1 5 -13 5 -14 0 -19 -2 -12 -5z"/>
<path d="M3488 5933 c7 -3 16 -2 19 1 4 3 -2 6 -13 5 -11 0 -14 -3 -6 -6z"/>
<path d="M2608 5923 c7 -3 16 -2 19 1 4 3 -2 6 -13 5 -11 0 -14 -3 -6 -6z"/>
<path d="M3558 5923 c7 -3 16 -2 19 1 4 3 -2 6 -13 5 -11 0 -14 -3 -6 -6z"/>
<path d="M2548 5913 c7 -3 16 -2 19 1 4 3 -2 6 -13 5 -11 0 -14 -3 -6 -6z"/>
<path d="M2860 5904 c-8 -1 -62 -8 -120 -14 -846 -97 -1631 -596 -2096 -1332
-135 -214 -273 -527 -338 -768 -176 -651 -122 -1338 155 -1951 94 -209 241
-448 385 -629 96 -120 310 -332 434 -430 990 -785 2341 -847 3395 -156 454
298 822 734 1044 1238 185 418 272 895 242 1331 -48 711 -327 1342 -811 1840
-479 493 -1085 788 -1770 863 -113 12 -466 18 -520 8z m-607 -1499 c134 -28
253 -118 312 -236 16 -30 56 -121 90 -204 35 -82 93 -222 130 -310 37 -88 105
-250 151 -360 46 -111 84 -208 84 -216 0 -8 -32 -89 -71 -180 -159 -368 -261
-603 -329 -758 -39 -90 -76 -186 -82 -213 -6 -26 -14 -48 -17 -48 -3 0 -113
258 -243 573 -131 314 -310 745 -398 957 -91 216 -168 416 -177 455 -52 242
110 486 358 539 83 19 110 19 192 1z m1852 -10 c87 -23 147 -60 220 -136 92
-95 116 -152 123 -289 4 -85 1 -118 -13 -161 -10 -30 -100 -243 -200 -474
-101 -231 -195 -449 -210 -485 -15 -36 -51 -119 -80 -185 -29 -66 -139 -318
-245 -560 -258 -590 -248 -571 -319 -638 -177 -169 -449 -175 -627 -14 -70 64
-109 127 -135 222 -39 142 -24 218 90 478 54 124 443 1021 611 1412 232 538
261 602 295 651 104 151 309 226 490 179z m-2841 -505 c86 -44 123 -97 205
-296 41 -98 110 -263 153 -365 43 -103 79 -197 80 -210 1 -13 -27 -89 -62
-169 -34 -80 -109 -252 -165 -383 -57 -132 -105 -235 -108 -230 -3 5 -85 200
-182 433 -97 234 -218 524 -268 645 -92 219 -92 220 -92 305 0 68 5 93 23 127
35 67 78 110 145 143 57 29 69 31 142 28 61 -3 92 -9 129 -28z m3882 1 c62
-28 118 -82 152 -146 23 -43 27 -62 26 -135 l0 -85 -169 -385 c-92 -212 -219
-502 -281 -645 -61 -143 -115 -260 -119 -260 -6 0 -325 759 -325 775 0 7 230
547 304 712 75 168 251 240 412 169z m-3114 -1043 c81 -194 153 -369 162 -389
l15 -36 -88 -204 c-107 -250 -113 -260 -156 -304 -145 -144 -390 -107 -489 74
-36 68 -45 174 -19 243 38 100 417 968 423 968 3 0 72 -159 152 -352z m2328
127 c45 -110 119 -290 165 -400 147 -350 158 -383 158 -455 1 -114 -63 -214
-171 -267 -48 -24 -70 -28 -137 -28 -91 0 -142 21 -208 84 -48 45 -60 67 -163
314 l-83 200 83 191 c46 105 109 250 139 321 103 241 118 271 127 255 4 -8 45
-105 90 -215z"/>
<path d="M2015 4286 c-106 -27 -178 -88 -227 -192 -25 -54 -30 -77 -30 -138 0
-40 7 -98 16 -129 9 -30 114 -295 235 -589 279 -680 312 -760 318 -754 2 2
-110 289 -250 638 -140 348 -263 658 -273 688 -12 35 -18 84 -18 135 0 68 4
89 29 138 32 64 81 114 147 149 37 20 58 23 150 23 60 0 108 3 108 6 0 12 -52
29 -103 34 -29 2 -74 -1 -102 -9z"/>
<path d="M2670 3838 c0 -4 66 -177 146 -385 l146 -378 -23 -40 c-48 -86 -309
-618 -315 -643 -7 -27 -7 -27 14 -8 22 19 129 230 209 410 24 55 64 138 88
184 25 46 45 90 45 97 0 15 -273 704 -295 744 -8 14 -14 23 -15 19z"/>
<path d="M3883 4320 c-97 -21 -176 -85 -230 -187 -17 -32 -155 -344 -306 -693
-378 -875 -419 -971 -414 -976 2 -2 15 22 29 53 14 32 103 234 198 448 94 215
235 534 312 710 77 176 160 360 185 408 77 155 153 207 299 207 159 0 254 -75
300 -235 22 -78 39 -85 31 -14 -7 59 -43 141 -81 186 -62 73 -213 117 -323 93z"/>
<path d="M4107 3273 c-8 -13 -168 -381 -434 -998 -140 -324 -269 -617 -288
-650 -67 -121 -148 -169 -280 -169 -163 0 -262 83 -305 257 -14 52 -30 63 -30
18 0 -59 39 -157 81 -205 62 -70 125 -99 229 -104 105 -5 181 20 247 81 59 54
88 108 202 378 54 129 187 443 296 699 232 546 295 700 290 700 -2 0 -6 -3 -8
-7z"/>
<path d="M1010 3828 c-97 -49 -132 -165 -94 -312 9 -33 44 -137 79 -231 80
-213 323 -807 336 -820 13 -12 21 -34 -166 440 -198 505 -228 596 -229 700 -1
95 20 147 74 183 30 21 44 23 98 19 34 -3 62 -3 62 -1 0 11 -68 44 -90 44 -14
0 -46 -10 -70 -22z"/>
<path d="M1520 3388 c0 -4 25 -85 56 -180 67 -205 70 -175 -40 -426 -72 -163
-87 -212 -67 -212 12 0 40 62 116 261 51 132 66 182 62 209 -7 58 -125 379
-127 348z"/>
<path d="M5150 3798 c84 -56 125 -126 117 -203 -7 -64 -75 -222 -240 -553 -71
-144 -127 -265 -123 -270 11 -11 44 34 87 120 74 146 279 618 290 666 24 107
-31 205 -148 266 -57 29 -49 17 17 -26z"/>
<path d="M4732 3588 c-18 -23 -51 -96 -148 -321 -114 -264 -114 -256 -36 -450
59 -146 161 -361 168 -355 2 3 -14 45 -37 94 -90 196 -169 409 -169 458 0 17
27 90 61 161 177 379 197 425 180 425 -5 0 -13 -6 -19 -12z"/>
<path d="M1827 2937 c-18 -58 -83 -205 -179 -400 -132 -267 -152 -315 -156
-365 -7 -96 40 -178 130 -228 44 -23 65 -28 123 -28 47 0 81 6 103 17 17 10
32 20 32 22 0 3 -36 2 -80 -1 -109 -9 -161 6 -222 67 -32 32 -49 59 -54 83
-15 83 -1 126 125 386 67 138 135 284 151 324 28 70 65 205 58 212 -2 2 -16
-38 -31 -89z"/>
<path d="M1990 2715 c0 -9 25 -70 55 -136 71 -155 72 -159 45 -221 -28 -65
-50 -138 -42 -138 7 1 70 149 79 186 5 22 -76 258 -103 302 -17 25 -34 29 -34
7z"/>
<path d="M4350 2826 c0 -14 44 -118 143 -343 63 -142 120 -280 126 -306 25
-104 -21 -199 -129 -267 -27 -17 -29 -20 -10 -14 65 18 133 93 156 169 19 68
11 116 -42 243 -20 48 -72 174 -115 281 -81 198 -102 241 -119 241 -6 0 -10
-2 -10 -4z"/>
<path d="M4088 2733 c-44 -81 -128 -291 -128 -319 0 -27 146 -360 162 -370 10
-6 6 5 -76 197 -36 86 -66 165 -66 176 0 11 34 89 75 173 70 144 87 190 67
190 -5 0 -20 -21 -34 -47z"/>
</g>
</svg>
